<?xml version="1.0" standalone="no"?>
<!DOCTYPE svg PUBLIC "-//W3C//DTD SVG 1.1//EN" "http://www.w3.org/Graphics/SVG/1.1/DTD/svg11.dtd">
<svg width="100%" height="100%" version="1.1" xmlns="http://www.w3.org/2000/svg">
<g  style="" >
<g  style="" >
<path d="M357.08823 41.911034 L363.60117 35.398254 "/>
</g>
<g  style="" >
<path d="M356.01974 53.47857 L371.7268 37.772007 "/>
</g>
<g  style="" >
<path d="M356.9513 63.0508 L378.62674 41.374653 "/>
</g>
<g  style="" >
<path d="M358.6171 71.88462 L385.4711 45.030037 "/>
</g>
<g  style="" >
<path d="M211.49855 229.50735 L265.94525 175.06023 "/>
</g>
<g  style="" >
<path d="M360.8108 80.19161 L392.6324 48.369164 "/>
</g>
<g  style="" >
<path d="M199.8236 251.66815 L286.50522 164.98784 "/>
</g>
<g  style="" >
<path d="M363.38287 88.1135 L400.44138 51.056583 "/>
</g>
<g  style="" >
<path d="M192.68446 269.30997 L302.6547 159.34119 "/>
</g>
<g  style="" >
<path d="M366.06894 95.92896 L409.46634 52.532513 "/>
</g>
<g  style="" >
<path d="M187.52246 284.97748 L316.91455 155.58539 "/>
</g>
<g  style="" >
<path d="M368.69763 103.80229 L421.37524 51.124687 "/>
</g>
<g  style="" >
<path d="M183.40645 299.59927 L330.09644 152.90797 "/>
</g>
<g  style="" >
<path d="M371.09003 111.912964 L459.6547 23.345982 "/>
</g>
<g  style="" >
<path d="M55.671402 437.8292 L86.33618 407.1645 "/>
</g>
<g  style="" >
<path d="M179.80472 313.69598 L342.68768 150.81302 "/>
</g>
<g  style="" >
<path d="M372.95175 120.548965 L467.44922 26.05107 "/>
</g>
<g  style="" >
<path d="M54.720142 449.27753 L104.16933 399.82623 "/>
</g>
<g  style="" >
<path d="M176.16309 327.82935 L355.14444 148.84921 "/>
</g>
<g  style="" >
<path d="M373.46976 130.52467 L471.29135 32.70731 "/>
</g>
<g  style="" >
<path d="M56.508595 457.99133 L125.46786 389.03207 "/>
</g>
<g  style="" >
<path d="M171.18161 343.3183 L472.98526 41.51467 "/>
</g>
<g  style="" >
<path d="M60.247562 464.75488 L473.9516 51.050434 "/>
</g>
<g  style="" >
<path d="M65.13396 470.36606 L84.00604 451.49396 "/>
</g>
<g  style="" >
<path d="M106.87814 428.62186 L475.07983 60.420197 "/>
</g>
<g  style="" >
<path d="M70.83791 475.1599 L85.92167 460.0758 "/>
</g>
<g  style="" >
<path d="M125.12929 420.86734 L476.44318 69.55465 "/>
</g>
<g  style="" >
<path d="M77.22418 479.27466 L90.13423 466.36514 "/>
</g>
<g  style="" >
<path d="M142.69255 413.8091 L478.0329 78.46599 "/>
</g>
<g  style="" >
<path d="M84.28296 482.72015 L95.19873 471.80484 "/>
</g>
<g  style="" >
<path d="M159.85434 407.15204 L479.76846 87.234764 "/>
</g>
<g  style="" >
<path d="M92.22835 485.27347 L100.48022 477.0218 "/>
</g>
<g  style="" >
<path d="M174.97055 402.53204 L481.24875 96.253174 "/>
</g>
<g  style="" >
<path d="M186.06546 401.93466 L466.91586 121.084305 "/>
</g>
<g  style="" >
<path d="M193.76968 404.73517 L462.8329 135.67197 "/>
</g>
<g  style="" >
<path d="M199.88672 409.11526 L463.40454 145.59978 "/>
</g>
<g  style="" >
<path d="M207.819 411.68338 L465.2279 154.27678 "/>
</g>
<g  style="" >
<path d="M218.30856 411.68338 L467.46408 162.52786 "/>
</g>
<g  style="" >
<path d="M228.80623 411.68338 L469.2008 171.28882 "/>
</g>
<g  style="" >
<path d="M239.30682 411.68338 L470.0707 180.91948 "/>
</g>
<g  style="" >
<path d="M249.8118 411.68338 L470.02905 191.4636 "/>
</g>
<g  style="" >
<path d="M260.30563 411.68338 L467.59772 204.39352 "/>
</g>
<g  style="" >
<path d="M270.80768 411.68338 L342.8044 339.68665 "/>
</g>
<g  style="" >
<path d="M352.30026 330.1908 L434.63293 247.85847 "/>
</g>
<g  style="" >
<path d="M281.3144 411.68338 L324.95526 368.0425 "/>
</g>
<g  style="" >
<path d="M365.28165 327.71613 L422.21844 270.77933 "/>
</g>
<g  style="" >
<path d="M291.81592 411.68338 L318.2411 385.2582 "/>
</g>
<g  style="" >
<path d="M373.59647 329.90283 L418.00803 285.49127 "/>
</g>
<g  style="" >
<path d="M302.3172 411.68338 L327.92987 386.0707 "/>
</g>
<g  style="" >
<path d="M379.1673 334.83328 L415.90363 298.09695 "/>
</g>
<g  style="" >
<path d="M312.82547 411.68338 L337.62527 386.88358 "/>
</g>
<g  style="" >
<path d="M382.39545 342.1134 L414.89542 309.61343 "/>
</g>
<g  style="" >
<path d="M323.31934 411.68338 L345.9432 389.0595 "/>
</g>
<g  style="" >
<path d="M383.6767 351.32602 L414.56766 320.43506 "/>
</g>
<g  style="" >
<path d="M333.82764 411.68338 L351.59842 393.9126 "/>
</g>
<g  style="" >
<path d="M384.5789 360.93213 L414.83728 330.67374 "/>
</g>
<g  style="" >
<path d="M344.33542 411.68338 L353.91824 402.10056 "/>
</g>
<g  style="" >
<path d="M387.08926 368.92953 L415.86362 340.15518 "/>
</g>
<g  style="" >
<path d="M390.46722 376.04373 L417.61734 348.89362 "/>
</g>
<g  style="" >
<path d="M394.41913 382.60165 L420.12103 356.89975 "/>
</g>
<g  style="" >
<path d="M398.7809 388.69806 L423.33002 364.14896 "/>
</g>
<g  style="" >
<path d="M403.5397 394.45148 L427.24606 370.74512 "/>
</g>
<g  style="" >
<path d="M408.64102 399.83603 L431.77277 376.70428 "/>
</g>
<g  style="" >
<path d="M414.13956 404.8515 L436.8014 382.18967 "/>
</g>
<g  style="" >
<path d="M420.1023 409.39978 L442.0486 387.45346 "/>
</g>
<g  style="" >
<path d="M426.68896 413.30005 L446.88428 393.10474 "/>
</g>
<g  style="" >
<path d="M434.52542 415.97464 L449.2384 401.26166 "/>
</g>
<g  style="fill:#000000;fill-opacity:1.0;stroke:none;stroke-opacity:1.0;stroke-width:1.0;stroke-linecap:butt;stroke-linejoin:miter;" >
<g  style="fill:#000000;fill-opacity:1.0;stroke:none;stroke-opacity:1.0;stroke-width:1.0;stroke-linecap:butt;stroke-linejoin:miter;" >
<path d="M202.82214 -411.68338 L354.2529 -411.68338 C354.2529 -390.15662 352.71588 -385.8865 317.06528 -385.8865 C322.76068 -368.8003 345.9111 -327.4631 358.77573 -327.4631 C370.1572 -327.4631 383.73495 -328.09003 383.73495 -354.0593 C383.73495 -383.54138 433.34888 -431.07578 445.37933 -411.68338 C463.30807 -382.7834 414.5572 -391.59616 414.5572 -321.89694 C414.5572 -226.5449 470.20483 -240.11922 470.20483 -186.54735 C470.20483 -159.74545 462.8006 -156.1261 462.8006 -136.96382 C462.8006 -111.63926 485.1107 -113.10883 480.77002 -92.111275 C477.77158 -77.60713 475.4251 -65.975555 473.677 -48.436264 C472.43658 -35.991344 472.0412 -22.72721 459.1147 -23.260546 C443.9267 -23.887188 438.16492 -50.62101 414.5572 -52.53783 C390.99762 -54.450745 370.90933 -32.481266 361.7909 -35.61913 C352.74936 -38.73054 355.59296 -63.258587 360.95334 -80.679825 C369.3783 -108.06096 387.75525 -143.66432 354.2529 -149.02469 C320.75055 -154.38509 263.12643 -159.74545 221.58348 -214.68936 C180.04053 -269.63324 181.5741 -334.11414 165.29945 -354.0593 C110.67941 -420.99805 54.70794 -393.51395 54.70794 -449.20605 C54.70794 -474.1393 96.95461 -492.0891 103.65508 -484.04852 C110.35557 -476.00797 46.720768 -452.0488 117.92234 -423.74423 C178.75143 -399.563 184.18152 -394.6267 202.82214 -411.68338 Z "/>
</g>
</g>
</g>
</svg>
