<?xml version="1.0" standalone="no"?>
<!DOCTYPE svg PUBLIC "-//W3C//DTD SVG 1.1//EN" "http://www.w3.org/Graphics/SVG/1.1/DTD/svg11.dtd">
<svg width="100%" height="100%" version="1.1" xmlns="http://www.w3.org/2000/svg">
<g  style="" >
<g  style="fill:#000000;fill-opacity:1.0;stroke:none;stroke-opacity:1.0;stroke-width:1.0;stroke-linecap:butt;stroke-linejoin:miter;" >
<g  style="fill:#000000;fill-opacity:1.0;stroke:none;stroke-opacity:1.0;stroke-width:1.0;stroke-linecap:butt;stroke-linejoin:miter;" >
<path d="M234.79195 -476.5749 L410.09195 -476.5749 C410.09195 -451.655 408.31268 -446.71182 367.04263 -446.71182 C373.6358 -426.9324 400.43527 -379.07944 415.3277 -379.07944 C428.50317 -379.07944 444.22113 -379.80515 444.22113 -409.86783 C444.22113 -443.99704 501.65543 -499.02405 515.58215 -476.5749 C536.3369 -443.11957 479.9017 -453.32147 479.9017 -372.63586 C479.9017 -262.25403 544.32074 -277.968 544.32074 -215.95186 C544.32074 -184.9253 535.74945 -180.73546 535.74945 -158.55273 C535.74945 -129.23637 561.5762 -130.93759 556.55133 -106.6303 C553.08026 -89.83995 550.3639 -76.37495 548.3403 -56.071022 C546.9043 -41.664474 546.44666 -26.309584 531.48254 -26.926987 C513.9006 -27.652403 507.2306 -58.60014 479.9017 -60.819096 C452.62854 -63.033535 429.37384 -37.60112 418.81815 -41.23359 C408.3514 -44.835434 411.64325 -73.22972 417.84854 -93.39697 C427.6015 -125.094055 448.87512 -166.3094 410.09195 -172.5147 C371.3088 -178.72002 304.60168 -184.9253 256.51053 -248.52972 C208.41939 -312.13416 210.19467 -386.77884 191.35475 -409.86783 C128.12523 -487.35782 63.331272 -455.54153 63.331272 -520.0121 C63.331272 -548.8754 112.23707 -569.6546 119.9937 -560.3466 C127.75035 -551.0387 54.085125 -523.3029 136.50983 -490.53687 C206.92711 -462.544 213.2131 -456.8297 234.79195 -476.5749 Z "/>
</g>
</g>
</g>
</svg>
